<svg width="22" height="15" viewBox="0 0 22 15" fill="none" xmlns="http://www.w3.org/2000/svg">
<path fill-rule="evenodd" clip-rule="evenodd" d="M1.07195 2.14286H20.367C21.0102 2.14286 21.439 1.71429 21.439 1.07143C21.439 0.428571 21.0102 0 20.367 0H1.07195C0.428779 0 0 0.428571 0 1.07143C0 1.71429 0.428779 2.14286 1.07195 2.14286ZM21.439 7.49998C21.439 8.14284 21.0102 8.57141 20.367 8.57141H1.07195C0.428779 8.57141 0 8.14284 0 7.49998C0 6.85712 0.428779 6.42855 1.07195 6.42855H20.367C21.0102 6.42855 21.439 6.85712 21.439 7.49998ZM1.07195 12.8571H20.367C21.0102 12.8571 21.439 13.2857 21.439 13.9285C21.439 14.5714 21.0102 15 20.367 15H1.07195C0.428779 15 0 14.5714 0 13.9285C0 13.2857 0.428779 12.8571 1.07195 12.8571Z" fill="white"/>
</svg>
