<svg width="22" height="22" viewBox="0 0 22 22" fill="none" xmlns="http://www.w3.org/2000/svg">
<path fill-rule="evenodd" clip-rule="evenodd" d="M21.9055 15.3334C21.9055 15.9048 21.5246 16.2858 20.9531 16.2858H1.90551C1.33408 16.2858 0.953125 15.9048 0.953125 15.3334C0.953125 14.7619 1.33408 14.381 1.90551 14.381C2.95312 14.381 3.81027 13.5238 3.81027 12.4762V7.71432C3.81027 3.52385 7.23884 0.0952759 11.4293 0.0952759C15.6198 0.0952759 19.0484 3.52385 19.0484 7.71432V12.4762C19.0484 13.5238 19.9055 14.381 20.9531 14.381C21.5246 14.381 21.9055 14.7619 21.9055 15.3334ZM13.905 19.6191C13.3336 20.5715 12.3812 21.0477 11.4288 21.0477C10.9526 21.0477 10.4764 20.9525 10.0002 20.6667C9.52403 20.381 9.23832 20.0953 8.9526 19.6191C8.66689 19.1429 8.85736 18.5715 9.33355 18.2858C9.80974 18.0001 10.3812 18.1906 10.6669 18.6667C10.6957 18.6956 10.7246 18.7331 10.756 18.7742C10.8285 18.8686 10.915 18.9813 11.0478 19.0477C11.524 19.3334 12.0955 19.1429 12.3812 18.6667C12.6669 18.1906 13.2383 18.0953 13.7145 18.2858C14.1907 18.4763 14.1907 19.1429 13.905 19.6191ZM17.143 12.4763C17.143 13.1429 17.3335 13.8096 17.6192 14.381H5.23828C5.524 13.8096 5.71447 13.1429 5.71447 12.4763V7.71435C5.71447 4.57149 8.2859 2.00006 11.4288 2.00006C14.5716 2.00006 17.143 4.57149 17.143 7.71435V12.4763Z" fill="white"/>
</svg>
