<svg width="20" height="18" viewBox="0 0 20 18" fill="none" xmlns="http://www.w3.org/2000/svg">
<path d="M6.53846 15.7692L1 17L2.38462 13.3077V2.23077C2.38462 1.90434 2.5305 1.5913 2.79016 1.36048C3.04983 1.12967 3.402 1 3.76923 1H17.6154C17.9826 1 18.3348 1.12967 18.5944 1.36048C18.8541 1.5913 19 1.90434 19 2.23077V14.5385C19 14.8649 18.8541 15.178 18.5944 15.4087C18.3348 15.6395 17.9826 15.7692 17.6154 15.7692H6.53846Z" stroke="white" stroke-width="1.91025" stroke-linecap="round" stroke-linejoin="round"/>
<path d="M10.6922 8.6918C10.501 8.6918 10.3461 8.55404 10.3461 8.38411C10.3461 8.21418 10.501 8.07642 10.6922 8.07642" stroke="white" stroke-width="1.91025" stroke-linecap="round" stroke-linejoin="round"/>
<path d="M10.6923 8.6918C10.8835 8.6918 11.0385 8.55404 11.0385 8.38411C11.0385 8.21418 10.8835 8.07642 10.6923 8.07642" stroke="white" stroke-width="1.91025" stroke-linecap="round" stroke-linejoin="round"/>
<path d="M6.88448 8.6918C6.69331 8.6918 6.53833 8.55404 6.53833 8.38411C6.53833 8.21418 6.69331 8.07642 6.88448 8.07642" stroke="white" stroke-width="1.91025" stroke-linecap="round" stroke-linejoin="round"/>
<path d="M6.88452 8.6918C7.0757 8.6918 7.23068 8.55404 7.23068 8.38411C7.23068 8.21418 7.0757 8.07642 6.88452 8.07642" stroke="white" stroke-width="1.91025" stroke-linecap="round" stroke-linejoin="round"/>
<path d="M14.4997 8.6918C14.3084 8.6918 14.1535 8.55404 14.1535 8.38411C14.1535 8.21418 14.3084 8.07642 14.4997 8.07642" stroke="white" stroke-width="1.91025" stroke-linecap="round" stroke-linejoin="round"/>
<path d="M14.4998 8.6918C14.691 8.6918 14.8459 8.55404 14.8459 8.38411C14.8459 8.21418 14.691 8.07642 14.4998 8.07642" stroke="white" stroke-width="1.91025" stroke-linecap="round" stroke-linejoin="round"/>
</svg>
