<svg width="12" height="15" viewBox="0 0 12 15" fill="none" xmlns="http://www.w3.org/2000/svg">
<g clip-path="url(#clip0_9_203)">
<path d="M0.00825817 7.48485C0.00825817 5.79065 0.0310694 4.09598 0.000510962 2.40272C-0.0218699 1.15537 0.924151 -0.0132805 2.22181 -0.000165306C4.20897 0.0199758 6.19613 0.00639228 8.18329 0.00358188C8.46821 0.00358188 8.68944 0.11834 8.8177 0.395163C8.93778 0.653719 8.90851 0.911807 8.74625 1.14179C8.59906 1.35023 8.39289 1.41159 8.15703 1.41159C6.18408 1.40831 4.21155 1.40925 2.23859 1.41018C1.77979 1.41018 1.47722 1.62424 1.34422 2.05517C1.31108 2.16243 1.30247 2.28328 1.30247 2.39804C1.30032 5.80189 1.30032 9.20574 1.30118 12.6096C1.30118 13.2017 1.65669 13.59 2.20201 13.5904C4.19649 13.5928 6.19053 13.5928 8.18501 13.59C8.46993 13.59 8.69116 13.7057 8.81899 13.9825C8.93391 14.2312 8.91067 14.4813 8.7583 14.7094C8.63177 14.8991 8.45573 14.9942 8.24225 14.9942C6.17633 14.9956 4.10998 15.0097 2.04405 14.9881C0.936632 14.9769 0.0147142 13.9197 0.0104102 12.708C0.00438457 10.9669 0.00868857 9.22588 0.00868857 7.48485H0.00825817Z" fill="#EA5455"/>
<path d="M9.79415 6.79834C9.11928 6.06436 8.49133 5.37956 7.86122 4.6971C7.67486 4.49522 7.5806 4.26196 7.65377 3.97904C7.79494 3.43289 8.38158 3.28019 8.76334 3.69285C9.52687 4.5177 10.2857 5.34771 11.0466 6.17583C11.2902 6.44095 11.5356 6.70372 11.7766 6.97118C12.0727 7.29999 12.0766 7.70188 11.7787 8.02741C10.7768 9.12253 9.77177 10.2148 8.76592 11.3057C8.48789 11.6074 8.0803 11.6177 7.82507 11.339C7.55994 11.05 7.56554 10.6326 7.85089 10.3184C8.42591 9.68555 9.00566 9.05789 9.58541 8.43024C9.6405 8.37028 9.70979 8.32578 9.77263 8.27426C9.76273 8.25037 9.75283 8.22648 9.74293 8.2026C9.66933 8.2026 9.59574 8.2026 9.52214 8.2026C7.92966 8.2026 6.33717 8.20353 4.74426 8.20166C4.40123 8.20166 4.15935 7.99884 4.08015 7.65878C4.01043 7.35807 4.1361 7.02738 4.40037 6.89061C4.51787 6.82972 4.66076 6.80255 4.79247 6.80208C6.36343 6.79646 7.93439 6.79834 9.50535 6.79834C9.58196 6.79834 9.65814 6.79834 9.79286 6.79834H9.79415Z" fill="#EA5455"/>
</g>
<defs>
<clipPath id="clip0_9_203">
<rect width="12" height="15" fill="#EA5455"/>
</clipPath>
</defs>
</svg>
