<svg width="22" height="25" viewBox="0 0 22 25" fill="none" xmlns="http://www.w3.org/2000/svg">
<path fill-rule="evenodd" clip-rule="evenodd" d="M11.3516 12.1932C14.4885 11.9401 17.0112 9.26757 16.8416 6.12818C16.7811 3.04942 13.9246 0.31705 10.3784 0.532305C7.42845 0.711179 4.42113 3.24801 4.77063 6.97177C5.03453 9.79585 7.67978 12.4896 11.3516 12.1932ZM6.20793 6.35632C6.22364 3.91044 8.24528 1.9686 10.7814 1.96481C13.3583 1.96102 15.3681 3.88619 15.3697 6.36238C15.3713 8.83478 13.3512 10.7865 10.7939 10.7834C8.25313 10.7812 6.19301 8.79158 6.20793 6.35632ZM9.21929 24.7831C9.79145 24.7828 10.3636 24.7826 10.9359 24.7826H10.9367V24.778C11.5784 24.778 12.22 24.7805 12.8615 24.7829C14.3142 24.7883 15.7667 24.7938 17.2192 24.7712C19.5408 24.7348 21.2577 23.2629 21.3999 21.1581C21.5303 19.2269 21.3166 17.3214 20.5579 15.5107C19.9964 14.1707 19.1418 13.0641 17.6661 12.5426C16.5979 12.1652 15.5557 12.0583 14.6014 12.842C14.4078 13.0005 14.1807 13.1247 13.9577 13.2466C13.9418 13.2552 13.926 13.2639 13.9102 13.2725C12.4737 14.06 10.9485 14.398 9.36037 13.8341C8.74198 13.6146 8.16195 13.2916 7.58292 12.9691C7.38019 12.8562 7.17759 12.7434 6.97351 12.6351C6.94851 12.6218 6.92363 12.6085 6.89881 12.5953C6.54629 12.4071 6.20837 12.2266 5.77105 12.2493C3.91984 12.3455 2.58308 13.2043 1.72306 14.7656C0.659614 16.6969 0.43106 18.7971 0.484468 20.9338C0.512743 22.0434 0.947859 23.0196 1.84401 23.7692C2.73231 24.512 3.78475 24.7788 4.92831 24.7811C6.35885 24.7843 7.78898 24.7837 9.21929 24.7831ZM10.9634 23.3417V23.341C11.5925 23.341 12.2215 23.3423 12.8506 23.3435C14.3406 23.3465 15.8305 23.3495 17.3205 23.3357C18.6894 23.3235 19.8126 22.4383 19.9108 21.2081C20.0537 19.4073 19.8786 17.6246 19.1418 15.9389C18.7601 15.065 18.2237 14.2919 17.2529 13.9137C16.5948 13.6568 15.9547 13.5416 15.3562 14.0638C15.2202 14.1824 15.0573 14.2735 14.8954 14.3642C14.8524 14.3882 14.8095 14.4122 14.7671 14.4367C13.3597 15.2477 11.8525 15.6562 10.2023 15.4743C8.79095 15.3182 7.53586 14.777 6.40802 13.9691C5.96426 13.6515 5.52915 13.6591 5.04612 13.7849C3.77454 14.1138 3.13051 15.0461 2.68361 16.1299C2.05528 17.6549 1.92334 19.2648 1.96496 20.8868C1.9736 21.2415 2.07571 21.6182 2.23357 21.9396C2.70874 22.9082 3.57819 23.3251 4.64635 23.3357C6.13657 23.3502 7.62719 23.3472 9.11765 23.3442C9.73294 23.343 10.3482 23.3417 10.9634 23.3417Z" fill="#6E6B7B"/>
</svg>
